<?xml version="1.0" encoding="UTF-8"?>
<svg id="Layer_2" data-name="Layer 2" xmlns="http://www.w3.org/2000/svg" viewBox="0 0 170.95 130.36">
  <defs>
    <style>
      .cls-1 {
        fill: #fff;
      }

      .cls-2 {
        fill: #231f20;
      }
    </style>
  </defs>
  <g id="Layer_14" data-name="Layer 14">
    <g>
      <g>
        <path class="cls-1" d="M167.02,60.83c-3.12-6.7-9.3-11.97-16.37-14.41-4.84-1.92-8.89-2.18-13.61-1.99-5.26.04-8.02.08-5.88-5.92,1.65-4.62,3.72-10.41,6.54-14.88,1.98-3.06,4.84-5.41,8.23-6.82,5.3-2.36,11.51-2.21,16.59-4.6,6.75-3.47,2.04-7.09-4.23-7.83-2.37-.34-4.99-.35-7.69-.16-38.49,4.44-77.42,4.2-116.1,1.63-3.58-.11-10.6-.39-11.47,2.8-.11.87.56,1.86,1.92,2.81,2.31,1.61,5.56,2.68,8.58,3.35,2.23.49,4.58.78,6.89.98,10.65.84,21.36,1.11,32.03,1.73,4.38.33,9,.92,12.97,2.71,7.5,3.19,9.97,10.93,5.99,17.89-4.19,7.53-13.47,10.68-21.82,11.47-20.26,1.36-40.75-.49-60.8-3.01-2.09-.2-8.05-1.06-6.64.33,28.05,15.85,85.57,13.45,118.22,12.15,5.08-.12,10.81.11,15.29,2.07,6.97,2.78,9.62,11.67,3.71,16.9-6.66,5.54-16.74,4.98-25.11,5.22-14.09.14-28.11-.18-41.74-1-7.93-.47-15.82-1.47-23.61-3l-4.8-.94c-4.96-.78-9.88-1.68-14.32-2.04-1.62-.15-4.14.11-1.78,1.78,4.63,2.77,10.23,4.5,15.53,6.25,22.33,6.58,49.94,9.03,77.09,9.74,5.04.3,12.1,1.37,14.35,5.5,1.73,2.83-.27,7.02-2.93,9.31-7.06,6.05-16.67,7.4-26.11,8.32-6.15.47-12.28.52-18.33-.09-19.64-2.31-39.45-9.03-58.89-11.61-4.74-.65-9.21.33-1.25,2.89,20.9,6.15,42.52,13.58,63.53,16.49,23.58,2.88,77.29,4.22,77.28-25.17-.04-4.67-.5-9.33-.19-14.03.23-5.54,1.58-12.04.97-17.71-.28-2.49-.98-4.88-2.02-7.12Z"/>
        <path class="cls-2" d="M168.92,56.76c-3.06-6.08-8.02-10.86-14.29-13.59-3.38-1.47-6.91-2.48-10.59-2.77-2.94-.23-6.57.63-9.44-.23-2.31-.69-2.5-2.11-1.98-4.36.33-1.45.96-2.88,1.47-4.27.44-1.19.81-2.56,1.42-3.68.3-.98.39-1.04.28-.18l.9-1.27c2.57-2.49,4.69-4.53,8.13-5.87,3.8-1.48,7.87-1.85,11.79-2.89,6.2-1.66,7.51-4.71,9.96-10.07.61-1.34,1.44-2.56.81-4.02-1.08-2.52-5.62-3.08-7.93-3.34-8.07-.9-16.55,1-24.6,1.64-9.16.73-18.34,1.21-27.53,1.48-17.74.52-35.49.26-53.21-.56-7.47-.35-15.21-1.51-22.69-1-5.46.37-6.33,2.33-8.44,6.85-.65,1.39-2.13,3.38-1.71,4.99.73,2.81,6.54,4.28,8.83,4.89,7.83,2.08,16.38,1.92,24.42,2.3,10.61.5,35.03-1.91,36.78,13.35.2,1.71-1.15,5.93.48,2.7,1.76-3.47-1,.69-1.97,1.58-2.78,2.58-6.31,4.31-9.9,5.43-8.29,2.59-17.54,2.21-26.12,2.09-10.18-.14-20.33-.91-30.45-1.97-4.47-.47-8.93-1.05-13.4-1.55-1.28-.14-5.3-1.15-6.12.05-.63.92-4.25,7.39-3.8,8.13,1.01,1.67,4.97,2.77,6.74,3.51,2.58,1.08,5.23,2,7.91,2.81,6.1,1.85,12.37,3.14,18.67,4.11,13.35,2.07,26.9,2.78,40.4,2.97,12.63.18,25.26-.15,37.88-.63,6.39-.24,13.07-.91,19.31.82,6.57,1.82,11.82,7.57,8.94,14.67l3.74-7.98c-4.58,8.02-15.78,8.05-23.88,8.2-11.68.22-23.36.07-35.03-.41s-22.68-1.37-33.91-3.52c-2.22-.42-4.43-.87-6.65-1.24-4.02-.66-11.3-3.2-15.11-1.36-1,.49-3.76,6.99-3.8,8.13-.08,2.74,9.52,5.33,11.57,6.04,4.75,1.64,9.56,2.99,14.46,4.12,10.43,2.41,21.05,3.96,31.69,5.05s21.93,1.75,32.92,2.09c5.97.18,21.47,1.28,17.05,11.13l3.56-7.57c-6.75,10.95-24.64,11.71-36.03,11.88-15,.23-29.67-3.64-44.17-7-7.3-1.69-14.62-3.36-22.03-4.52-3.4-.53-7.58-1.98-9.76,1-1.19,1.63-3.96,6.33-2.61,7.97,1.56,1.9,6.83,2.46,9.07,3.13,4.23,1.27,8.44,2.57,12.67,3.85,22.16,6.69,44.24,12.26,67.49,12.46,15.55.13,36.23-.39,48.51-11.48,4.89-4.42,8.71-12.31,10.09-18.72,1.41-6.54-.12-13.59.37-20.25.58-7.98,2.12-15.53-1.15-23.14.77,1.78-4.6,6.26-3.8,8.13,3.49,8.14,1.5,16.33,1.05,24.83-.35,6.64.82,13.27-.59,19.81-.29,1.37-1.74,4.36.49-.68,2.39-5.43,1.32-2.51.66-1.84-.76.77-1.34,1.76-2.1,2.56-1.5,1.56-3.23,2.89-5.05,4.04-3.97,2.5-8.45,4.13-12.97,5.33-21.42,5.69-45.84,4.06-67.29-.57-5.13-1.11-55.04-13.95-54.23-16.59l-3.8,8.13c1.67-1.13,4.6-.48,6.44-.23,4.61.62,9.18,1.5,13.73,2.45,9.25,1.94,18.4,4.3,27.65,6.23,16.79,3.5,36.03,5.71,52.52-.52,6.17-2.33,10.03-5.79,12.76-11.62,2.17-4.63,5.38-9.86-.25-13.44-6.13-3.9-15.16-2.86-22.03-3.16-9.69-.43-19.37-1.1-29.01-2.2s-19.34-2.61-28.83-4.85c-4.62-1.09-9.15-2.38-13.64-3.93-2.14-.74-11.65-3.28-11.57-6.04-1.27,2.71-2.53,5.42-3.8,8.13,3.76-1.83,11.21.72,15.11,1.36,2.83.46,5.63,1.06,8.45,1.58,11.86,2.19,23.85,2.9,35.88,3.32s23.32.64,34.94.18c8.52-.34,17.2-1.78,21.17-10.11,2.97-6.22,6.31-13.09-.47-18.38-6.93-5.4-17.93-3.66-26.1-3.36-18.32.68-36.68,1.05-54.99-.09-10.32-.64-20.66-1.74-30.78-3.88-4.56-.96-9.07-2.14-13.47-3.67-2.66-.92-9.62-2.67-11.15-5.19L.04,50.63c.83-1.2,4.9-.19,6.12-.05,4.79.53,9.58,1.16,14.38,1.65,9.79,1.01,19.62,1.73,29.47,1.87,15.01.21,33.38.85,40.92-14.73,2.25-4.65,5.33-9.75,3.87-15.1-2.13-7.79-10.96-9.85-17.96-10.59-9.57-1.02-19.27-.94-28.87-1.55-5.2-.33-21.86-.29-23.04-7.54l-1.86,4.09.34-.73-1.94,4.05c2.5-2.65,7.32-2.21,10.65-2.09,6.72.25,13.44.81,20.17,1.11,13.79.61,27.59.87,41.39.69s26.91-.8,40.32-1.94c3.42-.29,32.15-4.99,29.68,3.93l3.8-8.13c-2.94,4.14-9.31,4.41-13.85,5.41-5.07,1.13-9.85,3.12-13.14,7.32-4.33,5.54-7.12,13.28-9.61,19.8-.87,2.3-3.92,7.59-1.47,9.7s8.86.54,11.65.82c10.2,1.03,19.44,7.11,24.05,16.28-.81-1.61,4.66-6.43,3.8-8.13Z"/>
      </g>
      <g>
        <path class="cls-2" d="M169.22,67.7c-1.89-14.82-16.39-23.63-30.52-23.58-5.56-.21-8.05-1.84-6.32-7.54,1.6-4.92,3.67-10,6.81-14.11,4.2-5.63,11.1-7.32,17.6-8.8,2.01-.53,4.12-1.19,5.84-2.32,5.15-3.54.07-6.48-4.42-7.08-2.87-.47-5.84-.38-8.66-.17-37.39,4.02-75.11,3.92-112.66,1.55-3.33-.09-8.08-.35-10.71,1.56-2.49,2.21,1.26,4.81,3.56,5.7,2.65,1.12,5.54,1.71,8.38,2.13,10.65,1.31,21.41,1.33,32.11,2.02,3.7.24,7.43.57,11.03,1.51,6.47,1.53,12.68,6.34,11.96,13.55-1.01,10.09-11.52,15.45-20.62,16.73-19.38,2.2-39.07.16-58.37-1.95-1.9-.15-9.99-1.45-9.42.31,28.64,15.64,79.33,12.48,112.47,11.75,6.59-.13,14.13-.5,19.98,3.04,6.63,4.07,6.99,12.49.41,16.85-6.51,4.24-14.85,3.92-22.34,4.17-9.17.12-18.37.01-27.53-.29-12.54-.41-25.04-1.13-37.39-3.52-5.7-.97-11.63-2.31-17.36-2.69-4.86-.12-3.03,1.97-.19,3.34,5.71,2.67,11.7,4.41,17.7,5.98,20.25,5.14,44.64,7.17,68,7.99,1.78.1,3.56.23,5.33.47,2.44.34,4.87.91,6.91,1.92,6.14,2.89,5.19,9.05.59,12.95-2.2,1.94-4.83,3.29-7.55,4.35-5.43,2.07-11.39,2.92-17.19,3.45-7.38.63-14.61.52-21.86-.48-16.66-2.31-33.31-7.47-49.88-10.25-2.36-.36-5.22-.81-7.48-.65-4.95.55,1.95,3.04,3.43,3.46,22.92,6.86,45.56,14.76,69.25,16.52,25.68,1.69,68.07.79,68.44-26.53.07-1.83.02-3.71-.01-5.61-.08-3.43-.06-6.82.2-10.23.34-5.1,1.14-10.42.49-15.44v-.06ZM168.58,91.02c0,4.48.1,9.13-2.14,13.15-7.24,12.76-27.33,15.36-40.74,16.32-.58.02-10.24.57-8.83-.31,4.3-1.43,10.22-2.96,13.91-6.15,2.73-2.12,4.48-5.21,4.96-8.59.56-3.75.61-8.27-1.7-11.18-4.08-4.76-11.26-4.59-17.05-4.99-9.44-.35-18.99-.82-28.37-1.73-3.42-.34,1.25-.22,2.23-.19,9.92.25,19.86.34,29.77.04,5.61-.24,11.57-.74,16.47-3.7,5.23-2.97,6.6-9.09,6.3-14.64.08-6.32-3.46-11.47-9.73-13.23-3.98-1.25-8.24-1.43-12.4-1.41-21.58.58-43.52,1.68-65.04.02-.28-.07.4-.11,1.76-.14.43,0,.93-.02,1.46-.03,15.4.25,34.67-3.92,33.89-23,.24-8.7-2.61-14.2-11.3-16.71-6.67-1.95-13.7-1.98-20.59-2.35-8.28-.58-17.51-.38-25.47-1.9.17-.06,1.15-.05,2.59.02,36.15,2.19,72.61,2.4,108.67-1.57,2.7-.26,6.98-.59,9.31-.07,1.19.53-3.23,1.4-4.02,1.64-2.96.74-5.91,1.72-8.48,3.38-5.63,3.53-8.51,9.82-10.85,15.89-1.19,3.3-2.52,6.48-2.52,9.85-.09,2.18.03,5.44,1.62,7.16,2.46,2.7,7.02,1.87,10.38,2.3,3.61.29,7.11,1.28,10.5,2.82,8.6,3.78,15.75,11.96,16.02,21.63.12,5.85-.7,11.75-.61,17.61v.06Z"/>
        <g>
          <path class="cls-2" d="M169.31,68.14c-1.27-8.14-4.54-15.02-11.56-19.83-4.17-2.86-9.02-4.7-14.02-5.46-3.63-.55-11.2.84-12.09-4.15l.48,3.1c.03-5.85,3.77-13.15,7.33-17.66s9.16-6.72,14.8-8.14c3.59-.9,10.51-1.77,10.74-6.45.09-1.87-.6-4.09-2.07-5.21-5.02-3.83-13.88-1.84-19.55-1.3-7.88.76-15.77,1.33-23.67,1.75-15.81.83-31.65,1.02-47.47.71-7.92-.16-15.83-.44-23.74-.84-6.24-.31-14.18-2.09-20.26-.17-3.03.96-3.47,2.79-2.72,5.51,1.13,4.09,5.68,5.25,9.46,6.1,14.65,3.28,30.09.66,44.75,3.72,4.63.97,10.14,3.07,12.42,7.59,2.72,5.39-2.24,11.71-6.46,14.72-5.09,3.64-11.11,4.92-17.22,5.44-9.07.77-18.2.68-27.29.15-3.41-.2-36.53-4.22-36.63-2.18-.02.43.22,3.16.53,3.32,20.97,11.18,46.61,12.23,69.87,12.48,12.07.13,24.13-.24,36.19-.57,9.78-.26,27.84-2.91,31.34,9.53l-.35-2.1.17,1.11-.18-1.22c.49,16.16-26.82,13.35-36.89,13.31-18.41-.08-36.94-.58-55.09-3.86-3.2-.58-19.04-5.07-20.34-1.55-.66,1.8,1.09,4.11,2.31,4.98,3.14,2.23,7.9,3.39,11.53,4.51,4.24,1.31,8.54,2.41,12.88,3.35,8.35,1.83,16.82,3.1,25.32,4.07,9.83,1.12,19.7,1.81,29.58,2.27,6.83.32,21.77-1.12,23.9,7.77l-.53-3.32c.72,11.32-16.9,14.33-24.92,15.3-13.61,1.65-26.82.04-40.16-2.79-13.01-2.76-26.31-7.26-39.62-8.17-3.05-.21-4.78-.61-4.44,2.32.23,2.01.93,2.59,2.83,3.44,4.79,2.16,10.28,3.28,15.29,4.82,6.6,2.02,13.21,4.02,19.88,5.83,12.69,3.45,25.64,6.2,38.79,6.96,16.35.95,34.53,1.24,49.91-5.19,7.35-3.07,13.96-8.34,15.87-16.41,1.34-5.68.4-11.71.61-17.49.22-6.29,1.48-12.67.66-18.96-.13-1-.41-2.41-.52-3.2,1.02,7.87-.79,16.03-.71,23.95.05,5.57.49,11.19-1.96,16.37-3.97,8.39-13.14,12.56-21.65,14.81-23.72,6.29-50.83,3.46-74.27-2.29-9.14-2.24-18.15-4.96-27.14-7.72-4.36-1.33-8.8-2.54-13.12-4-1.38-.47-4.18-1.1-4.72-2.6l.53,3.32c1.13-1.74,6.23-.5,7.77-.28,4.51.64,9,1.6,13.45,2.57,8.94,1.95,17.82,4.21,26.8,5.99,16.21,3.22,35.11,5.1,50.84-1.34,5.03-2.06,10.96-5.85,10.54-11.99-.16-2.25-.64-4.83-2.17-6.51-5.22-5.72-17.15-4.27-24.11-4.62-8.65-.43-17.29-1.05-25.9-1.98-9.66-1.05-19.3-2.48-28.78-4.64-4.68-1.07-9.34-2.31-13.89-3.85-3.09-1.04-8.81-2.27-10.64-5.33l.53,3.32c.25-3.14,24.82,2.4,27.77,2.82,11.22,1.61,22.57,2.09,33.89,2.39s21.97.73,32.83-.18c7.45-.62,18.36-3.46,17.83-12.91-.86-15.29-17.81-14.33-29.43-14.03-17.53.45-35.07,1.09-52.59.25-18.96-.91-39.07-3.03-56.08-12.09l.53,3.32c.1-2.18,13.91.18,15.22.32,9.71,1.03,19.44,1.93,29.21,2.19,13.32.35,37.79,1.97,43.27-14.35,1.03-3.06.8-6.18.13-9.27-1.53-7.1-8.03-10.22-14.63-11.44-9.51-1.77-19.48-1.36-29.11-1.95-6.33-.39-20.9.27-24.04-6.88l.53,3.32c.35-4.44,8.39-3.63,11.49-3.5,6.26.26,12.52.73,18.79.99,12.86.53,25.72.77,38.59.62s25.05-.64,37.55-1.56c6.48-.48,12.96-1.4,19.44-1.71,3.65-.18,12.39-.56,13.53,4.32l-.51-3.27c-1.12,4.86-8.98,5.4-12.91,6.51-4.92,1.39-9.47,3.49-12.7,7.59-4.2,5.33-8.35,13.54-6.9,20.5.54,2.59,1.68,3.71,4.41,4.24,4.59.88,9.06.51,13.61,2.03,8.68,2.9,17.58,10.1,19.08,19.69.16,1.02.54,3.22.17.88Z"/>
          <path class="cls-2" d="M168.32,89.36c0,7.95-1.21,14.35-7.67,19.51-4.71,3.76-10.58,5.88-16.37,7.3s-11.76,2.16-17.7,2.58c-2.08.15-8.66,1.4-10.11-.07l.53,3.32c.78-.88,3.57-1.25,4.61-1.6,1.82-.61,3.63-1.27,5.35-2.12,3.64-1.79,6.85-4.48,8.32-8.36,1.54-4.07,1.25-9.13.22-13.34-2-8.19-11.13-8.55-18.09-8.92-5.28-.28-10.56-.44-15.83-.76-4.7-.28-9.85-.13-14.44-1.19l.53,3.32c1.6-.36,3.83,0,5.45.04,4.63.11,9.26.18,13.9.18,8.35.01,17.64.73,25.7-1.84,10.3-3.28,12.18-12.72,10.31-22.3-2.96-15.22-21.84-12.38-33.46-12.03-17.86.54-35.74.99-53.58-.32l.53,3.32c.48-.92,11.94-.51,13.67-.75,4.67-.65,9.39-1.84,13.52-4.19,8.79-5,10.88-14.03,9.61-23.53-.98-7.36-3.98-12.45-11.52-14.74-14.7-4.46-31-1.61-46.06-4.25l.53,3.32c4.31-.4,8.94.4,13.25.61,5.17.25,10.35.46,15.53.62,11.01.34,22.03.44,33.04.25s21.37-.64,32.03-1.43c5.17-.38,10.33-.86,15.48-1.39,1.96-.2,10-1.87,11.43-.03l-.53-3.32c-1.13.92-2.84,1.03-4.22,1.4-2.72.72-5.38,1.55-7.82,2.99-4.9,2.88-7.85,7.69-10.08,12.78-2.9,6.62-4.88,13.21-3.25,20.37,1.26,5.53,5.74,5.35,10.52,5.65,5.95.38,11.85,2.28,16.75,5.7,4.19,2.92,7.9,7.08,9.67,11.93,2.32,6.38.32,14.6.27,21.27,0,1.11.53,2.22.53,3.32.06-7.91,1.37-15.87-.17-23.71-2.07-10.57-10.81-18.04-20.94-20.8-4.2-1.14-12.69.42-15.72-3.24-3.43-4.13.81-12.4,2.55-16.5,2.16-5.08,4.97-10.03,9.73-13.09,2.6-1.67,5.52-2.59,8.48-3.38,1.34-.36,3.11-.5,4.22-1.4.16-.13-.35-3.1-.53-3.32-1.35-1.73-8.6-.26-10.46-.07-5.16.52-10.31,1.03-15.48,1.42-10.98.84-21.99,1.32-33,1.51s-21.38.09-32.07-.22c-5.18-.15-10.36-.36-15.53-.6-4.61-.22-9.61-1.08-14.22-.66.14-.01.29,3.28.53,3.32,12.76,2.24,25.84,1.16,38.67,2.78,10.55,1.33,18.63,5.28,18.17,16.89-.34,8.55-5.62,14.75-13.39,17.86-3.94,1.58-8.18,2.39-12.39,2.8-1.39.14-10.89-.36-11.33.48-.13.24.5,3.32.53,3.32,15.29,1.12,30.61.96,45.92.54,7.53-.21,15.17-.84,22.7-.51,5.77.25,12.43,1.25,16.06,6.27,3.02,4.17,2.48,10.63.1,15.02-3.05,5.63-9.91,7.32-15.81,7.97-7.25.8-14.69.58-21.98.53-3.97-.03-7.94-.1-11.91-.19-1.38-.03-3.1-.32-4.46-.02.06-.01.34,3.28.53,3.32,9.04,2.1,19.41,1.43,28.65,1.87,7.36.35,17.31.24,19.69,8.86l-.35-2.1.23,1.45-.18-1.22c.36,5.84-.88,11.21-5.71,14.9-2.08,1.59-4.43,2.66-6.87,3.58-1.61.61-5.5,1.02-6.64,2.31-.17.19.33,3.13.53,3.32,1.44,1.47,8.08.21,10.11.07,5.94-.42,11.91-1.17,17.7-2.58s11.66-3.54,16.37-7.3c6.43-5.13,7.67-11.57,7.67-19.51,0-1.11-.53-2.22-.53-3.32Z"/>
        </g>
      </g>
    </g>
  </g>
</svg>